inDegrees=yes
name=ik_lifting_orientations
DataType=double
version=3
OpenSimVersion=4.5-2024-01-10-34fd6af
endheader
time	pelvis_tilt	pelvis_list	pelvis_rotation	pelvis_tx	pelvis_ty	pelvis_tz	hip_flexion_r	hip_adduction_r	hip_rotation_r	knee_angle_r	knee_angle_r_beta	ankle_angle_r	subtalar_angle_r	mtp_angle_r	hip_flexion_l	hip_adduction_l	hip_rotation_l	knee_angle_l	knee_angle_l_beta	ankle_angle_l	subtalar_angle_l	mtp_angle_l	lumbar_extension	lumbar_bending	lumbar_rotation	arm_flex_r	arm_add_r	arm_rot_r	elbow_flex_r	pro_sup_r	wrist_flex_r	wrist_dev_r	arm_flex_l	arm_add_l	arm_rot_l	elbow_flex_l	pro_sup_l	wrist_flex_l	wrist_dev_l
0.02	-0.001496072388347706	-0.0007336480289166517	-90.15452446805514	0	0.9399999998679526	0	45.02775190828345	-11.50557995623008	0	59.85072301803201	1.044592176363816	-5.713618073546941	0	0	45.02775190828345	-11.50557995623008	0	59.85072301803201	1.044592176363816	-5.713618073546941	0	0	-0.001424404071496003	0.0005021204863582816	-0.001158418827257565	-0.2936332125529113	-0.06804254619333198	-0.00727663271479331	0.6133615094849362	2.923836971765005	0	0	0	-9.902785235694633	0	87.11624693980995	2.923836971765005	0	0
0.03	-0.0001918329964685566	0.0001277959545305414	-90.12465518684837	0	0.9399999998679526	0	45.02716502886113	-11.40603027840278	0	59.85321928552216	1.04463574445053	-5.654791229179884	0	0	45.02716502886113	-11.40603027840278	0	59.85321928552216	1.04463574445053	-5.654791229179884	0	0	0.0002146552001664896	-0.0009206311743235136	-0.03139711316531868	-0.1938828798807294	-0.08378205707333058	-0.0003076932902534892	0.4686399065356614	2.880185340449005	0	0	0	-9.959294792665014	0	87.15929651688182	2.880185340449005	0	0
0.04	0.01572027983308617	-0.06122767238940943	-90.06659001233608	0	0.9399999998679526	0	45.02657943974341	-11.31167650691565	0	59.85572228546338	1.044679430040681	-5.600089363842339	0	0	45.02657943974341	-11.31167650691565	0	59.85572228546338	1.044679430040681	-5.600089363842339	0	0	-0.1339509820074122	-0.01301215561427344	-0.08949685174307488	-0.09596837848008601	-0.08425417303125832	0.02903386571601255	0.4818164520399325	2.836328139270516	0	0	0	-10.01631197220127	0	87.20254888079684	2.836328139270516	0	0
0.05	0.01074973054993926	-0.06091231326529804	-90.06612076484873	0	0.9399999998679526	0	45.02594739772373	-11.21551347775101	0	59.85843923433458	1.044726849744092	-5.54551289941051	0	0	45.02594739772373	-11.21551347775101	0	59.85843923433458	1.044726849744092	-5.54551289941051	0	0	-0.1295037341293267	-0.009325691671991237	-0.08878850425629378	-0.04445573968122877	-0.07750981040814585	0.02941217627328636	0.492750290159862	2.788627359159901	0	0	0	-10.07861850173901	0	87.24959187833545	2.788627359159901	0	0
0.06	0.02872558455186235	-0.06264052348573931	-90.0115232436353	0	0.9399999998679526	0	45.02539360593155	-11.13415052186377	0	59.86082756569467	1.044768533989954	-5.49992279579877	0	0	45.02539360593155	-11.13415052186377	0	59.86082756569467	1.044768533989954	-5.49992279579877	0	0	-0.1364611589545018	-0.02853863044649149	-0.09571574181532529	-0.02761923223097107	-0.1596006176128778	-0.06178344963033575	0.5244194886449122	2.746631503706753	0	0	0	-10.13363581748677	0	87.29100865145442	2.746631503706753	0	0
0.07000000000000001	0.02359782162968492	-0.09733514235070444	-89.94152551989438	0	0.9399999998679526	0	45.02433730661441	-10.98913825607474	0	59.86541255827062	1.044848557206584	-5.420752563124419	0	0	45.02433730661441	-10.98913825607474	0	59.86541255827062	1.044848557206584	-5.420752563124419	0	0	-0.2158115097439222	-0.009651308581735372	-0.1603580980200059	-0.1935740492223604	-0.2407953719446896	-0.1266436662769451	1.031350982106477	2.66581234305079	0	0	0	-10.24009265980853	0	87.37071350477837	2.66581234305079	0	0
0.08	0.03563689611033345	-0.1125547599461886	-89.88340961091779	0	0.9399999998679526	0	45.02383042293061	-10.92457833721119	0	59.86762928399785	1.044887246369138	-5.386480853550987	0	0	45.02383042293061	-10.92457833721119	0	59.86762928399785	1.044887246369138	-5.386480853550987	0	0	-0.2335894633232491	-0.03611371755329768	-0.2157814030096625	0.07875653141588322	-0.1660858617362209	-0.1701144909615152	0.4940572122050793	2.626637472810537	0	0	0	-10.29201553967865	0	87.40934830316884	2.626637472810537	0	0
